# xmcd CD database file
#
# Track frame offsets:
#	150
#	17930
#	40865
#	62200
#	77362
#	99875
#	118425
#	144637
#	163400
#	184587
#	198900
#	215430
#
# Disc length: 3118 seconds
#
# Revision: 0
# Processed by: cddbd v1.5.2PL0 Copyright (c) Steve Scherf et al.
# Submitted via: CDex 1.51
#
DISCID=a80c2c0c
DTITLE=胡笙－薩克斯風 - 清馨集２－薩克斯風２
DYEAR=1900
DGENRE=Jazz
TTITLE0=風舞(直到永遠)
TTITLE1=愛你依然不變
TTITLE2=一路上有你
TTITLE3=REMEMBER (立頓紅茶)
TTITLE4=認識你真好
TTITLE5=傷心酒店
TTITLE6=飛越迷霧
TTITLE7=容易受傷的女人
TTITLE8=真實的果實(妳在他鄉)
TTITLE9=JUST THE TWO OF US (失戀陣線聯盟)
TTITLE10=讓我歡喜讓我憂
TTITLE11=台北今夜冷清清
EXTD=
EXTT0=
EXTT1=
EXTT2=
EXTT3=
EXTT4=
EXTT5=
EXTT6=
EXTT7=
EXTT8=
EXTT9=
EXTT10=
EXTT11=
PLAYORDER=
